HIERARCHY
ROOT RootJoint
{
    OFFSET   0.000000   0.000000   0.000000
    CHANNELS 6 Xposition Yposition Zposition Xrotation Yrotation Zrotation
    JOINT pelvis_lowerback
    {
        OFFSET   0.000000   0.093605   0.000000
        CHANNELS 3 Xrotation Yrotation Zrotation
        JOINT lowerback_torso
        {
            OFFSET   0.000000   0.100000   0.000000
            CHANNELS 3 Xrotation Yrotation Zrotation
            JOINT torso_head
            {
                OFFSET   0.000000   0.282350   0.000000
                CHANNELS 3 Xrotation Yrotation Zrotation
                End Site
                {
                    OFFSET   0.000000   0.192650   0.000000
                }
            }
            JOINT rTorso_Clavicle
            {
                OFFSET  -0.001000   0.157500   0.000000
                CHANNELS 3 Xrotation Yrotation Zrotation
                JOINT rShoulder
                {
                    OFFSET  -0.117647   0.000000   0.000000
                    CHANNELS 3 Xrotation Yrotation Zrotation
                    JOINT rElbow
                    {
                        OFFSET  -0.245000   0.000000   0.000000
                        CHANNELS 3 Xrotation Yrotation Zrotation
                        JOINT rWrist
                        {
                            OFFSET  -0.240000   0.000000   0.000000
                            CHANNELS 3 Xrotation Yrotation Zrotation
                            End Site
                            {
                                OFFSET  -0.116353  -0.002500   0.000000
                            }
                        }
                    }
                }
            }
            JOINT lTorso_Clavicle
            {
                OFFSET   0.001000   0.157500   0.000000
                CHANNELS 3 Xrotation Yrotation Zrotation
                JOINT lShoulder
                {
                    OFFSET   0.117647   0.000000   0.000000
                    CHANNELS 3 Xrotation Yrotation Zrotation
                    JOINT lElbow
                    {
                        OFFSET   0.245000   0.000000   0.000000
                        CHANNELS 3 Xrotation Yrotation Zrotation
                        JOINT lWrist
                        {
                            OFFSET   0.240000   0.000000   0.000000
                            CHANNELS 3 Xrotation Yrotation Zrotation
                            End Site
                            {
                                OFFSET   0.116353  -0.002500   0.000000
                            }
                        }
                    }
                }
            }
        }
    }
    JOINT rHip
    {
        OFFSET  -0.100000  -0.051395   0.000000
        CHANNELS 3 Xrotation Yrotation Zrotation
        JOINT rKnee
        {
            OFFSET   0.000000  -0.410000   0.000000
            CHANNELS 3 Xrotation Yrotation Zrotation
            JOINT rAnkle
            {
                OFFSET   0.000000  -0.390000   0.000000
                CHANNELS 3 Xrotation Yrotation Zrotation
                JOINT rToeJoint
                {
                    OFFSET   0.000000  -0.050000   0.130000
                    CHANNELS 3 Xrotation Yrotation Zrotation
                    End Site
                    {
                        OFFSET  -0.010000   0.002000   0.060000
                    }
                }
            }
        }
    }
    JOINT lHip
    {
        OFFSET   0.100000  -0.051395   0.000000
        CHANNELS 3 Xrotation Yrotation Zrotation
        JOINT lKnee
        {
            OFFSET   0.000000  -0.410000   0.000000
            CHANNELS 3 Xrotation Yrotation Zrotation
            JOINT lAnkle
            {
                OFFSET   0.000000  -0.390000   0.000000
                CHANNELS 3 Xrotation Yrotation Zrotation
                JOINT lToeJoint
                {
                    OFFSET   0.000000  -0.050000   0.130000
                    CHANNELS 3 Xrotation Yrotation Zrotation
                    End Site
                    {
                        OFFSET   0.010000   0.002000   0.060000
                    }
                }
            }
        }
    }
}
MOTION
Frames: 11
Frame Time:   0.008333
 -1.879893   0.888167   4.297242  -2.399258  -2.107349  -0.681096   7.864756  -0.612487   1.794520  -2.412781  -1.269992   0.881683  -3.370224  -1.516890   2.666863  -4.191181  14.652026 -10.352265 -16.355477  36.071967  21.404772  -0.004413  84.176342   0.003647  -8.999162   8.713887   3.510269  -4.523221  -6.778509   8.026502 -28.056506   3.531122 -17.946896  -0.000199 -67.613891   0.000037 -13.859715 -10.424919  10.912883 -27.942613  -1.071261  -7.702231  51.169291   0.021265  -0.005548 -10.849100  -6.835942   2.162333   1.312262   0.000096   0.000093   0.004235  -2.283207   5.069965  26.126869   0.000785   0.004036 -23.928864  -2.700890  -1.632826  -0.150028  -0.000064   0.000016
 -1.880270   0.889818   4.292548  -2.355136  -2.052213  -0.648389   7.775489  -0.636190   1.771134  -2.417404  -1.290001   0.966283  -3.471919  -1.554821   2.692812  -4.138258  14.736025 -10.343129 -16.367075  36.175463  21.385147  -0.002570  83.887844   0.001833  -9.002577   8.686320   3.503774  -4.484040  -6.638239   8.023520 -28.017031   3.600345 -17.888333  -0.000515 -67.809647   0.000030 -13.878406 -10.292572  10.917345 -27.156439  -0.847690  -8.035712  52.203009   0.021186  -0.004766 -10.898453  -6.794633   1.851120   1.290705  -0.000108   0.000066  -0.123740  -2.478478   5.035449  25.571217   0.000873   0.003810 -23.305768  -2.567276  -1.494917  -0.116205  -0.000094   0.000013
 -1.880732   0.891335   4.287978  -2.288220  -1.989699  -0.604290   7.660715  -0.652248   1.741507  -2.442054  -1.307739   1.045018  -3.568213  -1.592240   2.714089  -4.092993  14.817344 -10.341507 -16.380105  36.270644  21.362625  -0.000824  83.611415   0.000188  -9.003774   8.616260   3.486524  -4.450760  -6.506374   8.037261 -27.983937   3.656635 -17.825443  -0.000933 -68.003847  -0.000108 -13.886082 -10.218891  10.898562 -26.346234  -0.618785  -8.399663  53.140827   0.020950  -0.004176 -10.942121  -6.755455   1.559748   1.291881  -0.000076   0.000053  -0.280609  -2.668160   4.999387  25.043308   0.000942   0.003528 -22.706804  -2.447539  -1.364610  -0.081874  -0.000119   0.000011
 -1.881295   0.892733   4.283503  -2.203806  -1.947582  -0.559894   7.533375  -0.653882   1.712720  -2.484350  -1.313367   1.120245  -3.660088  -1.626867   2.733260  -4.055071  14.898104 -10.343581 -16.396207  36.361913  21.339833   0.000695  83.352920  -0.001204  -9.004200   8.540754   3.459510  -4.424098  -6.379749   8.060948 -27.957172   3.707260 -17.758622  -0.001353 -68.187571  -0.000307 -13.888549 -10.172484  10.888821 -25.541754  -0.403523  -8.771482  54.017067   0.020425  -0.003928 -10.982347  -6.718701   1.287403   1.296240  -0.000025   0.000043  -0.458268  -2.840127   4.971243  24.544176   0.001018   0.003275 -22.134101  -2.325728  -1.241343  -0.047152  -0.000140   0.000009
 -1.881971   0.894023   4.279101  -2.107324  -1.932032  -0.518760   7.400670  -0.642762   1.685938  -2.538065  -1.306755   1.193074  -3.747324  -1.658946   2.751256  -4.023104  14.978891 -10.347777 -16.415153  36.450381  21.318027   0.001888  83.112296  -0.002271  -9.004676   8.471605   3.424669  -4.403005  -6.256797   8.090975 -27.935476   3.754863 -17.689314  -0.001710 -68.359767  -0.000508 -13.888614 -10.138883  10.894443 -24.754474  -0.206592  -9.141987  54.840871   0.019623  -0.003945 -11.019414  -6.684177   1.033045   1.301836   0.000024   0.000034  -0.650152  -2.992571   4.954572  24.071857   0.001106   0.003062 -21.586476  -2.197377  -1.123932  -0.011744  -0.000158   0.000008
 -1.882767   0.895217   4.274758  -2.003109  -1.942780  -0.481708   7.267681  -0.621799   1.660988  -2.598158  -1.290172   1.263398  -3.829718  -1.688748   2.768350  -3.995765  15.059159 -10.353230 -16.436085  36.536028  21.297641   0.002731  82.888508  -0.003003  -9.005416   8.410929   3.384313  -4.386363  -6.137545   8.124938 -27.917744   3.800266 -17.619045  -0.001972 -68.520644  -0.000675 -13.887450 -10.112161  10.913930 -23.991219  -0.028233  -9.506791  55.615962   0.018599  -0.004121 -11.053616  -6.651714   0.795561   1.307876   0.000065   0.000025  -0.851820  -3.126274   4.950660  23.624472   0.001201   0.002885 -21.062177  -2.061998  -1.011536   0.024631  -0.000175   0.000007
 -1.883687   0.896320   4.270460  -1.894812  -1.977604  -0.448566   7.138221  -0.593859   1.637396  -2.660730  -1.266290   1.330734  -3.907201  -1.716478   2.784585  -3.971983  15.138125 -10.359397 -16.458131  36.618547  21.278784   0.003251  82.680340  -0.003431  -9.006425   8.358007   3.340545  -4.373199  -6.022578   8.161028 -27.903092   3.843635 -17.549179  -0.002131 -68.670765  -0.000792 -13.885617 -10.089579  10.944096 -23.256696   0.132687  -9.863355  56.344773   0.017415  -0.004369 -11.085235  -6.621171   0.573861   1.313852   0.000094   0.000017  -1.059824  -3.242757   4.959851  23.200476   0.001298   0.002734 -20.559557  -1.920363  -0.903573   0.062191  -0.000192   0.000006
 -1.884648   0.897318   4.266409  -1.784928  -1.985525  -0.410543   6.921707  -0.579564   1.600114  -2.669755  -1.251757   1.412120  -3.968248  -1.742844   2.781752  -3.910877  15.227155 -10.366251 -16.534040  36.665499  21.296347   0.005384  82.338668  -0.005515  -8.988265   8.386358   3.340137  -4.329328  -5.902958   8.206235 -27.874791   3.903197 -17.517654  -0.002457 -68.892681  -0.000976 -13.865970 -10.035843  10.944403 -22.319257   0.326685 -10.253297  56.501553   0.014603  -0.003646 -10.969567  -6.480984   0.380014   1.318868   0.000112   0.000018  -1.265549  -3.362818   4.976091  22.795155   0.001368   0.002506 -20.072019  -1.802684  -0.858101   0.087481  -0.000178   0.000005
 -1.885690   0.898161   4.262438  -1.662914  -2.022607  -0.352212   6.693334  -0.551641   1.542168  -2.695364  -1.226499   1.481000  -4.028830  -1.767299   2.777399  -3.851901  15.311824 -10.370202 -16.604048  36.702793  21.313612   0.006944  82.006629  -0.006991  -8.967126   8.348201   3.315685  -4.287678  -5.782907   8.252073 -27.846591   3.960354 -17.486091  -0.002766 -69.104125  -0.001211 -13.842511 -10.007264  10.924052 -21.384681   0.525319 -10.677175  56.534741   0.011828  -0.002937 -10.862950  -6.349300   0.198371   1.338587   0.000230   0.000026  -1.495398  -3.460286   4.977148  22.434600   0.001409   0.002304 -19.617018  -1.679163  -0.823407   0.111459  -0.000163   0.000005
 -1.886853   0.898887   4.258523  -1.540584  -2.089629  -0.287476   6.469668  -0.514250   1.475881  -2.730328  -1.192019   1.538986  -4.087940  -1.789888   2.772684  -3.796786  15.392788 -10.372645 -16.670166  36.737422  21.330532   0.007844  81.694751  -0.007795  -8.945629   8.291568   3.282810  -4.250468  -5.663278   8.295661 -27.820841   4.017540 -17.453106  -0.002994 -69.301110  -0.001434 -13.818728  -9.985724  10.910412 -20.480833   0.711647 -11.111012  56.539546   0.009487  -0.002337 -10.763700  -6.227066   0.028266   1.358926   0.000321   0.000026  -1.733619  -3.537423   4.979731  22.111841   0.001437   0.002129 -19.191853  -1.546681  -0.795040   0.135868  -0.000153   0.000004
 -1.888160   0.899522   4.254651  -1.422398  -2.181235  -0.223150   6.255315  -0.471542   1.406386  -2.769006  -1.151693   1.588684  -4.144373  -1.810890   2.768020  -3.745260  15.470291 -10.374094 -16.732744  36.770711  21.347254   0.008200  81.403575  -0.008058  -8.924822   8.234032   3.247901  -4.216990  -5.545781   8.335790 -27.797146   4.074471 -17.420149  -0.003115 -69.484141  -0.001608 -13.795833  -9.964917  10.906450 -19.615695   0.880916 -11.541063  56.539870   0.007595  -0.001855 -10.670731  -6.113509  -0.130803   1.378726   0.000382   0.000020  -1.972110  -3.598056   4.992732  21.817714   0.001461   0.001975 -18.791549  -1.406720  -0.769775   0.161911  -0.000147   0.000004
